<svg id="Layer_1" data-name="Layer 1" xmlns="http://www.w3.org/2000/svg" viewBox="0 0 609.42 177.93"><defs><style>.cls-1{fill:#f5acb8;}</style></defs><title>bani_logo_hor</title><path class="cls-1" d="M243.39,361.93q-5.19,9.06-9.06,16.56c-1.11,2.14-2.18,4.27-3.21,6.37s-1.93,4-2.68,5.81a43.18,43.18,0,0,0-1.7,4.56,4.31,4.31,0,0,0-.27,2.56c.2.48.62.56,1.25.27a11,11,0,0,0,2.3-1.61,38,38,0,0,0,2.94-2.92q1.62-1.75,3.28-3.66,3.87-4.53,8.58-10.73l.59,1q-4.82,6.31-9.29,11.31-1.91,2.14-3.9,4.23t-3.9,3.76a35.28,35.28,0,0,1-3.61,2.8,7.59,7.59,0,0,1-2.94,1.31,4.49,4.49,0,0,1-2.57-.24,2.44,2.44,0,0,1-1.28-1.91,10.28,10.28,0,0,1,.27-3.9,39.59,39.59,0,0,1,2.09-6.28,57.6,57.6,0,0,1-4.14,5,38.87,38.87,0,0,1-4.17,3.9,20,20,0,0,1-4,2.53,8.24,8.24,0,0,1-3.46.9,3.46,3.46,0,0,1-3.16-1.64,8.16,8.16,0,0,1-.95-4.47,25.23,25.23,0,0,1,1.22-6.64,47.1,47.1,0,0,1,3.43-8.1,59.5,59.5,0,0,1,5-8.1,53.4,53.4,0,0,1,5.66-6.61,30.88,30.88,0,0,1,5.57-4.44,9.66,9.66,0,0,1,4.85-1.64,3.54,3.54,0,0,1,3.67,2.71,14.51,14.51,0,0,1-.09,7.18q1.19-2.26,2.56-4.74t2.92-5.15Zm-34.55,38.48a4.76,4.76,0,0,0,2.35-1,22.16,22.16,0,0,0,3.19-2.62,47.46,47.46,0,0,0,3.6-4,57.92,57.92,0,0,0,3.67-5q2.32-5.18,6.13-12.45a21.56,21.56,0,0,0,1.31-7.5c-.12-1.91-.73-2.86-1.84-2.86a4.6,4.6,0,0,0-2.74,1.4,26,26,0,0,0-3.46,3.78,59.37,59.37,0,0,0-3.81,5.63c-1.31,2.16-2.6,4.46-3.87,6.88s-2.38,4.76-3.31,6.91a42,42,0,0,0-2.05,5.6,10.72,10.72,0,0,0-.51,3.78C207.6,399.94,208.05,400.41,208.84,400.41Z" transform="translate(-56.29 -270.86)"/><path class="cls-1" d="M239.81,403.57h-8.1l21.62-41.64h8.16l-5.89,11.38a58.81,58.81,0,0,1,4.14-4.62,36.13,36.13,0,0,1,4.14-3.6,21.65,21.65,0,0,1,3.9-2.33,8.5,8.5,0,0,1,3.36-.83,6.56,6.56,0,0,1,3.55.89,3.92,3.92,0,0,1,1.58,3.22,17.77,17.77,0,0,1-1.13,6.37,71,71,0,0,1-4.59,10.31c-.56,1-1.26,2.29-2.12,3.78s-1.63,3-2.35,4.47a28.58,28.58,0,0,0-1.64,4.17,3.63,3.63,0,0,0,.09,2.95c.2.35.63.34,1.28,0a14.61,14.61,0,0,0,2.33-1.79c.89-.81,1.88-1.81,3-3s2.2-2.39,3.31-3.66q3.87-4.47,8.64-10.49l.65,1q-5.11,6.61-9.89,11.73c-1.35,1.47-2.73,2.91-4.17,4.32s-2.82,2.66-4.16,3.75a26.46,26.46,0,0,1-3.85,2.65,6.71,6.71,0,0,1-3.18,1,2.11,2.11,0,0,1-1.94-.9,4.3,4.3,0,0,1-.57-2.35,13.69,13.69,0,0,1,.48-3.34c.32-1.25.72-2.53,1.19-3.84a84.59,84.59,0,0,1,4.65-10.48c1.27-2.42,2.36-4.72,3.27-6.88a51.13,51.13,0,0,0,2.06-5.63,10.64,10.64,0,0,0,.54-3.78c-.1-.93-.53-1.4-1.28-1.4a5.3,5.3,0,0,0-2.51,1,22.45,22.45,0,0,0-3.39,2.68,52.09,52.09,0,0,0-3.87,4.08,51.24,51.24,0,0,0-3.87,5.15Z" transform="translate(-56.29 -270.86)"/><path class="cls-1" d="M282.34,380l13.76-18.05h8.16Q299,371,295.15,378.49c-1.12,2.14-2.19,4.27-3.22,6.37s-1.93,4-2.68,5.81a40.15,40.15,0,0,0-1.67,4.56,4.39,4.39,0,0,0-.24,2.56c.2.48.64.56,1.31.27a13.11,13.11,0,0,0,2.51-1.61,40.46,40.46,0,0,0,3.27-2.92q1.79-1.75,3.58-3.66,4.23-4.53,9.47-10.73l.59,1q-5.35,6.31-10.18,11.31-2.08,2.14-4.26,4.23t-4.17,3.76a37.21,37.21,0,0,1-3.78,2.8,8.39,8.39,0,0,1-3,1.31c-1.55.23-2.66-.09-3.34-1s-.71-2.64-.12-5.24a62.76,62.76,0,0,1,4-10.75q3.1-6.85,8.94-17.57l-9.23,12ZM312,347.41c-3.14,2-4.71-1.23-7.08-1.79,1.37-2.46,5.47-3.16,7-1.95A6,6,0,0,1,312,347.41Zm-3.41-9.32c.7,4-2.63,4.35-3.93,6.54-1.63-2.32-.83-6.73.72-7.88A4.87,4.87,0,0,1,308.59,338.09Zm-8.42.93c3.24.46,2.68,3.82,4,5.72-2.24.95-5.43-1.13-5.9-3A5.19,5.19,0,0,1,300.17,339ZM298,348.46c1.84-3.36,4.19-1.68,6.29-2.55-.28,2.74-3.38,5.56-5,5.47A4.66,4.66,0,0,1,298,348.46Zm8.2,5.9c-2.95-2.85-.87-5.19-1.36-7.79,2.63.88,4.85,5.06,4.46,6.95A4.08,4.08,0,0,1,306.19,354.36Z" transform="translate(-56.29 -270.86)"/><path class="cls-1" d="M58.3,421.19a69.27,69.27,0,0,0,17.86-7.6,68.26,68.26,0,0,0,18.62,7.63,100.83,100.83,0,0,0,25.49,2.87,96.61,96.61,0,0,0,38.92-7.95,80.72,80.72,0,0,0,15.25-8.67,75.52,75.52,0,0,0,12-10.68,41,41,0,0,0,12.14-6.44,57.68,57.68,0,0,0,11.61-12.2l-1-.66A58,58,0,0,1,199,388.3a37.26,37.26,0,0,1-10.42,5.93,54,54,0,0,0,7.63-12.64,37.37,37.37,0,0,0,3.06-12.79,28.16,28.16,0,0,0-2-12,27,27,0,0,0-7.51-10.24,42.49,42.49,0,0,0-13.48-7.51,76,76,0,0,0-19.85-3.88,63.86,63.86,0,0,0,16.2-3.92,60.24,60.24,0,0,0,13-7,50.8,50.8,0,0,0,9.68-8.93,41.39,41.39,0,0,0,6.14-9.8,27.94,27.94,0,0,0,2.41-9.52,16.08,16.08,0,0,0-1.49-8.17,13.26,13.26,0,0,0-5.58-5.73,20,20,0,0,0-9.88-2.16c-21.09,0-37.21,17-48.89,32.64-11.46,15.39-20,32.66-29.17,49.46a86.47,86.47,0,0,0-12.77-5.7,37.74,37.74,0,0,0-12.47-2.2,3.63,3.63,0,0,0-.5,0,3.15,3.15,0,0,1-.44,0s-1.87,0-2.79.18a28.08,28.08,0,0,0-8,2.14,25.93,25.93,0,0,0-6.47,4.06,25,25,0,0,0-4.84,5.67,28.23,28.23,0,0,0-3.06,6.89l-.65,2.49a30.57,30.57,0,0,0-.41,9.15,32.48,32.48,0,0,0,2.43,9.43,39,39,0,0,0,5.43,9.09A43.57,43.57,0,0,0,73,411.45a54.31,54.31,0,0,1-7.69,4.87,52.66,52.66,0,0,1-8.46,3.47ZM59,373a26.58,26.58,0,0,1,3-6.11,24.25,24.25,0,0,1,4.48-5.05,22.81,22.81,0,0,1,5.85-3.59,24.43,24.43,0,0,1,7.06-1.81l3-.18a28.18,28.18,0,0,1,11.19,2.82,116.51,116.51,0,0,1,13,7q-4.28,7.67-8.25,14.28t-7.93,12.2a108.41,108.41,0,0,1-8,10.09,67.44,67.44,0,0,1-8.46,8,39.56,39.56,0,0,1-8.73-8,37.19,37.19,0,0,1-5.31-9,30.68,30.68,0,0,1-2.23-9.26,29.07,29.07,0,0,1,.66-8.94Zm109.88,34.82a66,66,0,0,1-13.15,7.69,81.49,81.49,0,0,1-16.17,5.13,92.2,92.2,0,0,1-19.12,1.87,103.13,103.13,0,0,1-24.9-2.67,70.09,70.09,0,0,1-18.2-7.06,73.26,73.26,0,0,0,10.36-8.11,97.63,97.63,0,0,0,9.17-9.91,136.87,136.87,0,0,0,8.34-11.55q4-6.17,7.87-13,5,3.27,10.3,6.8t10.77,6.82q5.47,3.3,11.05,6.18A95.36,95.36,0,0,0,156.46,395a63,63,0,0,0,11.3,3,43.2,43.2,0,0,0,11.23.39A62.31,62.31,0,0,1,168.89,407.86Zm11.88-11.79a35.35,35.35,0,0,1-10.78-.59,61.13,61.13,0,0,1-10.89-3.38,95.79,95.79,0,0,1-11-5.41q-5.49-3.13-10.95-6.67t-10.89-7.19q-5.43-3.65-10.84-6.91,2.51-4.51,5-9.17c4.81-9.09,9.9-18,14.84-27.05q4.67-8.47,9.12-16.56a143.63,143.63,0,0,1,10.62-15,58,58,0,0,1,10.12-9.85,35,35,0,0,1,10.42-5.4,38.51,38.51,0,0,1,11.52-1.67,10.39,10.39,0,0,1,11,8.4,20.35,20.35,0,0,1-.06,8.58,36.16,36.16,0,0,1-3.59,9.83,48.41,48.41,0,0,1-7,9.82,49.67,49.67,0,0,1-10.21,8.58A54.73,54.73,0,0,1,164,332.49a53.59,53.59,0,0,1-16.17,2.32l.29.83a56.88,56.88,0,0,1,18.44,2.7,38.68,38.68,0,0,1,13.09,7.28,29.16,29.16,0,0,1,7.8,10.62A33.29,33.29,0,0,1,190.12,369a41,41,0,0,1-2.26,13.69A48.42,48.42,0,0,1,180.77,396.07Z" transform="translate(-56.29 -270.86)"/><path class="cls-1" d="M520.91,362.45q-5.17,9-9,16.55c-1.12,2.15-2.19,4.27-3.22,6.38s-1.93,4-2.68,5.81a44.57,44.57,0,0,0-1.7,4.55,4.4,4.4,0,0,0-.27,2.56q.3.72,1.26.27a10.61,10.61,0,0,0,2.29-1.61,36.23,36.23,0,0,0,2.95-2.92q1.61-1.76,3.27-3.66,3.87-4.53,8.58-10.72l.6,1q-4.83,6.31-9.3,11.32-1.9,2.14-3.9,4.23t-3.9,3.75a34.91,34.91,0,0,1-3.6,2.8,7.47,7.47,0,0,1-2.95,1.31,4.37,4.37,0,0,1-2.56-.24,2.4,2.4,0,0,1-1.28-1.9,10.43,10.43,0,0,1,.26-3.9,40.71,40.71,0,0,1,2.09-6.29,54.74,54.74,0,0,1-4.14,5,40.07,40.07,0,0,1-4.17,3.91,20.5,20.5,0,0,1-4,2.53,8.32,8.32,0,0,1-3.46.89,3.42,3.42,0,0,1-3.15-1.64,8.14,8.14,0,0,1-1-4.46,25.42,25.42,0,0,1,1.23-6.65,46.23,46.23,0,0,1,3.42-8.1,60.5,60.5,0,0,1,5-8.1,55,55,0,0,1,5.66-6.61,32.16,32.16,0,0,1,5.57-4.44,9.67,9.67,0,0,1,4.86-1.63,3.53,3.53,0,0,1,3.66,2.71,14.23,14.23,0,0,1-.09,7.17c.8-1.51,1.65-3.08,2.56-4.73s1.89-3.37,2.92-5.15Zm-34.55,38.47a4.72,4.72,0,0,0,2.36-.95,22,22,0,0,0,3.18-2.62,45.7,45.7,0,0,0,3.61-4,58.87,58.87,0,0,0,3.66-5q2.32-5.19,6.14-12.45a21.57,21.57,0,0,0,1.31-7.51c-.12-1.9-.74-2.86-1.85-2.86a4.6,4.6,0,0,0-2.74,1.4,28.39,28.39,0,0,0-3.46,3.78,60.69,60.69,0,0,0-3.81,5.63q-2,3.25-3.87,6.88t-3.3,6.91a42.73,42.73,0,0,0-2.06,5.6,10.72,10.72,0,0,0-.51,3.78C485.12,400.46,485.57,400.92,486.36,400.92Z" transform="translate(-56.29 -270.86)"/><path class="cls-1" d="M509.53,404.08q20-39.19,37.23-69.21,4.89-8.52,9.83-16.83t9.68-15.7q4.74-7.38,9.08-13.52t8-10.36a38.52,38.52,0,0,1,6.59-6.23c1.92-1.33,3.48-1.69,4.67-1.1q2,1,1.82,4.14a24.73,24.73,0,0,1-2.2,7.77,96.65,96.65,0,0,1-5.54,10.64q-3.56,6-8.08,12.71t-9.82,14Q565.52,327.67,560,335t-11.14,14.32q-5.58,7-10.63,13.34-5,9.84-9.12,18.11t-6.91,14q2.08-3,4.74-6.55t5.57-7.18q2.91-3.6,6-7a82.59,82.59,0,0,1,6-6,36.23,36.23,0,0,1,5.66-4.2,9.93,9.93,0,0,1,4.91-1.57,4.53,4.53,0,0,1,3.87,1.57,6,6,0,0,1,1.1,4,12.84,12.84,0,0,1-1.36,5.06,17.67,17.67,0,0,1-9.15,8.55,14.86,14.86,0,0,1-7.15,1,39,39,0,0,0-3.27,7.51,22.69,22.69,0,0,0-.75,3,10.16,10.16,0,0,0-.12,2.89,6.91,6.91,0,0,0,.72,2.47,3.78,3.78,0,0,0,1.82,1.7,3.45,3.45,0,0,0,2.83.12,12.27,12.27,0,0,0,3.36-1.88,30.71,30.71,0,0,0,3.63-3.24c1.23-1.27,2.43-2.6,3.58-4a125.83,125.83,0,0,0,8.52-11.56l1,.54a89.88,89.88,0,0,1-8.76,12q-2,2.26-4.17,4.41a42.84,42.84,0,0,1-4.52,3.84,23.94,23.94,0,0,1-4.68,2.71,11.86,11.86,0,0,1-4.68,1,5.41,5.41,0,0,1-3.63-1.07,5.21,5.21,0,0,1-1.67-2.8,11.56,11.56,0,0,1-.18-4,27.41,27.41,0,0,1,.9-4.56,70.17,70.17,0,0,1,4.94-12.45,9.24,9.24,0,0,0,6,1.64,10.48,10.48,0,0,0,5.06-2,16,16,0,0,0,3.87-4.14,20.44,20.44,0,0,0,2.36-4.8,8.7,8.7,0,0,0,.47-4c-.18-1.09-.74-1.64-1.7-1.64a8.36,8.36,0,0,0-4.46,1.73,38.55,38.55,0,0,0-5.42,4.53q-2.86,2.79-5.9,6.37t-5.9,7.33q-6.72,8.81-13.94,19.95ZM594,273.34c-.8-.52-1.89-.24-3.28.83a30.68,30.68,0,0,0-4.88,5.12c-1.87,2.35-3.94,5.23-6.23,8.67s-4.68,7.26-7.21,11.47-5.13,8.71-7.83,13.52-5.42,9.73-8.16,14.8-5.46,10.18-8.16,15.34-5.3,10.2-7.8,15.13q4.88-6.14,10.09-12.81T560.85,332q5.08-6.79,9.95-13.52t9-12.9q4.14-6.16,7.42-11.61a107.2,107.2,0,0,0,5.24-9.68,29.27,29.27,0,0,0,2.44-7.06C595.21,275.29,594.91,274,594,273.34Z" transform="translate(-56.29 -270.86)"/><path class="cls-1" d="M589.71,363a3.87,3.87,0,0,1,2.26,2.68,6.92,6.92,0,0,1-.45,3.87A18.36,18.36,0,0,1,589,374a36.34,36.34,0,0,1-4,4.5,40.21,40.21,0,0,1-4.79,3.93,27.06,27.06,0,0,1-5,2.8,12.5,12.5,0,0,1-4.58,1,4.81,4.81,0,0,1-3.52-1.28,52.83,52.83,0,0,0-2.44,6.11,22.15,22.15,0,0,0-1.1,5.21,6.46,6.46,0,0,0,.65,3.66,3.06,3.06,0,0,0,2.77,1.46,7.65,7.65,0,0,0,3.52-.92,28.34,28.34,0,0,0,4.29-2.65c1.5-1.11,3.06-2.38,4.67-3.79s3.17-2.86,4.68-4.37q5.35-5.25,11.08-12l.71.78a140.61,140.61,0,0,1-15.48,16.38c-2.11,1.82-4.23,3.49-6.38,5a27.37,27.37,0,0,1-6.22,3.37,11.2,11.2,0,0,1-5.54.71A6.23,6.23,0,0,1,558,401a9.73,9.73,0,0,1-1.67-5.63,19.62,19.62,0,0,1,1.25-6.64,37.93,37.93,0,0,1,3.49-7,49.89,49.89,0,0,1,5.09-6.79,56.21,56.21,0,0,1,6.08-5.89,37.85,37.85,0,0,1,6.37-4.38,20.77,20.77,0,0,1,6-2.23A8,8,0,0,1,589.71,363Zm-3.46.72q-1.72-.54-4,1a25.66,25.66,0,0,0-4.85,4.41,58.13,58.13,0,0,0-5,6.61,79.61,79.61,0,0,0-4.43,7.62,3.17,3.17,0,0,0,2.65,1.61A6.93,6.93,0,0,0,574,384a20.77,20.77,0,0,0,3.84-2.74,34.8,34.8,0,0,0,3.76-3.9,42.24,42.24,0,0,0,3.15-4.38,24.47,24.47,0,0,0,2.15-4.17,8.17,8.17,0,0,0,.65-3.34A1.85,1.85,0,0,0,586.25,363.7Z" transform="translate(-56.29 -270.86)"/><path class="cls-1" d="M603.35,370.37c-.72.83-1.51,1.73-2.39,2.71l-2.68,3-2.68,3-2.44,2.8h-1.43q3.1-3.69,5.6-6.61t4.53-4.88h-1a5.73,5.73,0,0,1-3.06-.72,3.78,3.78,0,0,1-1.61-1.81,4.18,4.18,0,0,1-.21-2.39,5,5,0,0,1,1.22-2.38,8.08,8.08,0,0,1,2.71-1.88,11.69,11.69,0,0,1,4.17-.89,4.49,4.49,0,0,1,2.83.63,2.31,2.31,0,0,1,1,1.81,5.4,5.4,0,0,1-.68,2.62,12.09,12.09,0,0,1-2.18,3l8,.06h.06a9.65,9.65,0,0,1,4.59.89,3.38,3.38,0,0,1,1.76,2.89,12.3,12.3,0,0,1-1.16,5.22,57.85,57.85,0,0,1-4.17,7.86c-.4.67-.86,1.47-1.37,2.38s-1,1.86-1.49,2.83-.92,1.94-1.31,2.89a14.56,14.56,0,0,0-.84,2.56,4,4,0,0,0,0,1.88,1.1,1.1,0,0,0,1.11.8,3.19,3.19,0,0,0,1.87-.74,26,26,0,0,0,2.62-2.12q1.47-1.31,3.07-3t3.16-3.48q3.69-4.17,7.86-9.59l.6,1a145.61,145.61,0,0,1-9.71,11.74q-2,2.2-4.26,4.32a53.12,53.12,0,0,1-4.41,3.75,27.24,27.24,0,0,1-4.23,2.65,8.71,8.71,0,0,1-3.78,1,2.1,2.1,0,0,1-1.91-.83,3.71,3.71,0,0,1-.44-2.24,13.84,13.84,0,0,1,.62-3.15,29.38,29.38,0,0,1,1.37-3.61,99,99,0,0,1,5.18-9.83q2.33-3.93,4.05-6.64a21.4,21.4,0,0,0,2.3-4.38c.37-1.11.27-1.9-.33-2.38s-1.85-.71-3.75-.71Zm1.37-8.46a3.88,3.88,0,0,0-2.56,1,5.36,5.36,0,0,0-1.64,2.2,2.39,2.39,0,0,0,.18,2.21c.41.67,1.37,1,2.88,1a11.65,11.65,0,0,0,1.91-2.62,5.13,5.13,0,0,0,.63-2.05,1.73,1.73,0,0,0-.39-1.31A1.34,1.34,0,0,0,604.72,361.91Z" transform="translate(-56.29 -270.86)"/><path class="cls-1" d="M335.82,421.19a69.34,69.34,0,0,0,17.87-7.6,68.18,68.18,0,0,0,18.61,7.63,100.86,100.86,0,0,0,25.5,2.87,96.61,96.61,0,0,0,38.91-7.95A80.81,80.81,0,0,0,452,407.47a76,76,0,0,0,12-10.68,41.21,41.21,0,0,0,12.14-6.44,57.65,57.65,0,0,0,11.6-12.2l-.95-.66a57.72,57.72,0,0,1-10.24,10.81,37.22,37.22,0,0,1-10.41,5.93,54.26,54.26,0,0,0,7.62-12.64,37.37,37.37,0,0,0,3.06-12.79,28,28,0,0,0-2-12,26.84,26.84,0,0,0-7.51-10.24,42.43,42.43,0,0,0-13.47-7.51,76,76,0,0,0-19.86-3.88,63.83,63.83,0,0,0,16.21-3.92,60.48,60.48,0,0,0,13-7,50.73,50.73,0,0,0,9.67-8.93,41.45,41.45,0,0,0,6.15-9.8,28.15,28.15,0,0,0,2.4-9.52,16.08,16.08,0,0,0-1.48-8.17,13.37,13.37,0,0,0-5.58-5.73A20,20,0,0,0,464.4,280c-21.09,0-37.2,17-48.89,32.64-11.46,15.39-20,32.66-29.17,49.46a86.37,86.37,0,0,0-12.76-5.7,37.79,37.79,0,0,0-12.47-2.2,3.68,3.68,0,0,0-.51,0,2.94,2.94,0,0,1-.44,0s-1.86,0-2.79.18a28.17,28.17,0,0,0-8,2.14,25.93,25.93,0,0,0-6.47,4.06,25,25,0,0,0-4.84,5.67,27.83,27.83,0,0,0-3.05,6.89l-.65,2.49a30.24,30.24,0,0,0-.42,9.15,33.13,33.13,0,0,0,2.43,9.43,38.75,38.75,0,0,0,5.44,9.09,43.23,43.23,0,0,0,8.63,8.13,51.91,51.91,0,0,1-16.14,8.34Zm.71-48.15a26.58,26.58,0,0,1,3-6.11,24.54,24.54,0,0,1,4.48-5.05,22.81,22.81,0,0,1,5.85-3.59,24.51,24.51,0,0,1,7.06-1.81l3-.18a28.18,28.18,0,0,1,11.19,2.82,115.63,115.63,0,0,1,13,7q-4.27,7.67-8.25,14.28T368,392.63a110.13,110.13,0,0,1-8,10.09,67.44,67.44,0,0,1-8.46,8,39.28,39.28,0,0,1-8.72-8,36.92,36.92,0,0,1-5.32-9,30.66,30.66,0,0,1-2.22-9.26,29.07,29.07,0,0,1,.65-8.94Zm109.89,34.82a66.33,66.33,0,0,1-13.15,7.69,81.38,81.38,0,0,1-16.18,5.13A92.2,92.2,0,0,1,398,422.55a103.19,103.19,0,0,1-24.9-2.67,70,70,0,0,1-18.19-7.06,73.26,73.26,0,0,0,10.36-8.11,98.79,98.79,0,0,0,9.17-9.91,136.87,136.87,0,0,0,8.34-11.55q4-6.17,7.86-13,5,3.27,10.3,6.8t10.78,6.82q5.46,3.3,11,6.18A95.36,95.36,0,0,0,434,395a63.36,63.36,0,0,0,11.31,3,43.14,43.14,0,0,0,11.22.39A62.65,62.65,0,0,1,446.42,407.86Zm11.87-11.79a35.38,35.38,0,0,1-10.78-.59,61.13,61.13,0,0,1-10.89-3.38,95.67,95.67,0,0,1-10.95-5.41q-5.49-3.13-10.95-6.67t-10.9-7.19q-5.43-3.65-10.83-6.91,2.49-4.51,5-9.17c4.8-9.09,9.89-18,14.84-27.05q4.65-8.47,9.11-16.56a145.14,145.14,0,0,1,10.62-15,58.06,58.06,0,0,1,10.13-9.85,34.8,34.8,0,0,1,10.41-5.4,38.56,38.56,0,0,1,11.52-1.67,10.39,10.39,0,0,1,11,8.4,20,20,0,0,1-.06,8.58A36.16,36.16,0,0,1,472,308a48.35,48.35,0,0,1-7,9.82,49.67,49.67,0,0,1-10.21,8.58,54.73,54.73,0,0,1-13.27,6.08,53.7,53.7,0,0,1-16.18,2.32l.3.83a56.81,56.81,0,0,1,18.43,2.7,38.58,38.58,0,0,1,13.09,7.28A29.19,29.19,0,0,1,465,356.24,33.46,33.46,0,0,1,467.64,369a40.72,40.72,0,0,1-2.26,13.69A48.15,48.15,0,0,1,458.29,396.07Z" transform="translate(-56.29 -270.86)"/><path class="cls-1" d="M481.77,434.23A194.57,194.57,0,0,0,451,430.75c-23.76-.46-47.32-.78-70,7.76-.21.08,1.45-.22,4.63-.71a309.24,309.24,0,0,1,73.51-2.63c24.18,2.13,47.15,10.32,71.2,12.66,22.37,2.18,46.2,1,67.46-7.41s35.32-24.94,47.74-43.66c.5-.76,1-1.53,1.49-2.3L660.11,372q3.45-5.81,5.6-9.44h-8.1c-.52,1-1.11,2-1.79,3.22-.55,1-1.23,2.24-2,3.63s-1.65,2.92-2.56,4.59c-1.16,1.75-2.5,3.62-4,5.63s-3.12,4-4.77,6-3.29,3.9-4.91,5.72-3.13,3.44-4.5,4.83-2.54,2.5-3.51,3.33-1.62,1.25-1.94,1.25c-.56,0-.75-.46-.57-1.4a21.68,21.68,0,0,1,1.25-3.78c.66-1.59,1.51-3.42,2.57-5.51s2.15-4.28,3.3-6.58,2.47-4.68,4-7.12,2.91-4.67,4.26-6.7c1.59-2.38,3.2-4.69,4.83-6.91h-7.75c-1.35,1.79-2.74,3.77-4.17,6-1.27,1.86-2.67,4.05-4.2,6.55s-3.06,5.24-4.61,8.22-2.78,5.68-3.81,8.22a34.08,34.08,0,0,0-2.06,6.61,8.06,8.06,0,0,0,.15,4.41,2.7,2.7,0,0,0,2.8,1.61q1.55,0,4.29-2.06a58.32,58.32,0,0,0,6-5.33q3.28-3.27,6.79-7.41t6.56-8.26c-1.06,1.88-2.11,3.77-3.16,5.65-7.19,12.88-21.7,32.25-34.2,40.29q-2.76,1.79-5.66,3.37c-22.31,12.22-48.17,13.86-73,11.91C514.49,441.14,498.19,437.19,481.77,434.23Z" transform="translate(-56.29 -270.86)"/></svg>